<!DOCTYPE svg PUBLIC "-//W3C//DTD SVG 1.1//EN" "http://www.w3.org/Graphics/SVG/1.1/DTD/svg11.dtd">
<!-- Uploaded to: SVG Repo, www.svgrepo.com, Transformed by: SVG Repo Mixer Tools -->
<svg width="800px" height="800px" viewBox="0 0 32 32" id="svg5" version="1.1" xmlns="http://www.w3.org/2000/svg" xmlns:svg="http://www.w3.org/2000/svg" fill="#3ed981">
<g id="SVGRepo_bgCarrier" stroke-width="0"/>
<g id="SVGRepo_tracerCarrier" stroke-linecap="round" stroke-linejoin="round"/>
<g id="SVGRepo_iconCarrier"> <defs id="defs2"/> <g id="layer1" transform="translate(-348,-196)"> <path d="m 361,220.00586 c -1.64501,0 -3,1.35499 -3,3 0,1.64501 1.35499,3 3,3 1.64501,0 3,-1.35499 3,-3 0,-1.64501 -1.35499,-3 -3,-3 z m 0,2 c 0.56413,0 1,0.43587 1,1 0,0.56413 -0.43587,1 -1,1 -0.56413,0 -1,-0.43587 -1,-1 0,-0.56413 0.43587,-1 1,-1 z" id="circle39515" style="color:#3ed981;fill:#3ed981;fill-rule:evenodd;stroke-linecap:round;stroke-linejoin:round;stroke-miterlimit:4.1;-inkscape-stroke:none"/> <path d="m 371,220.00586 c -1.64501,0 -3,1.35499 -3,3 0,1.64501 1.35499,3 3,3 1.64501,0 3,-1.35499 3,-3 0,-1.64501 -1.35499,-3 -3,-3 z m 0,2 c 0.56413,0 1,0.43587 1,1 0,0.56413 -0.43587,1 -1,1 -0.56413,0 -1,-0.43587 -1,-1 0,-0.56413 0.43587,-1 1,-1 z" id="circle39517" style="color:#3ed981;fill:#3ed981;fill-rule:evenodd;stroke-linecap:round;stroke-linejoin:round;stroke-miterlimit:4.1;-inkscape-stroke:none"/> <path d="m 373.36719,202.23047 -2.0293,1.65625 -0.65625,-0.61133 a 1,1 0 0 0 -1.41211,0.0488 1,1 0 0 0 0.0488,1.41211 l 1.29297,1.20898 a 1.0001,1.0001 0 0 0 1.3125,0.043 l 2.70898,-2.20703 a 1,1 0 0 0 0.14258,-1.40625 1,1 0 0 0 -1.4082,-0.14453 z" id="path39523" style="color:#3ed981;fill:#3ed981;fill-rule:evenodd;stroke-linecap:round;stroke-linejoin:round;stroke-miterlimit:4.1;-inkscape-stroke:none"/> <path d="m 351,198.00586 c -0.55228,0 -1,0.44772 -1,1 0,0.55228 0.44772,1 1,1 h 1.18945 l 3.83203,18.20703 c 0.0979,0.46231 0.50597,0.79302 0.97852,0.79297 h 17 c 0.55228,0 1,-0.44772 1,-1 0,-0.55228 -0.44772,-1 -1,-1 h -16.18945 l -0.42188,-2 H 373 c 0.45916,1.8e-4 0.85946,-0.31232 0.9707,-0.75781 l 1.29492,-5.21485 C 376.90874,207.96028 378,206.10519 378,204.00586 c 0,-3.30186 -2.69814,-6 -6,-6 -2.60121,0 -4.8265,1.67494 -5.6543,4 h -11.69336 l -0.67382,-3.20508 C 353.88142,198.33756 353.47315,198.006 353,198.00586 Z m 21,2 c 2.22098,0 4,1.77902 4,4 0,2.22098 -1.77902,4 -4,4 -2.22098,0 -4,-1.77902 -4,-4 0,-2.22098 1.77902,-4 4,-4 z m -16.92578,4 H 366 c 0,3.30186 2.69814,6 6,6 0.33554,0 0.6635,-0.0305 0.98438,-0.084 l -0.76563,3.08398 H 357 c -0.01,0.002 -0.0196,0.004 -0.0293,0.006 z" id="path1723" style="color:#3ed981;fill:#3ed981;fill-rule:evenodd;stroke-linecap:round;stroke-linejoin:round;stroke-miterlimit:4.1;-inkscape-stroke:none"/> </g> </g>
</svg>